<svg width="35" height="35" viewBox="0 0 35 35" fill="none" xmlns="http://www.w3.org/2000/svg">
<circle cx="17.5" cy="17.5" r="16.5" fill="#1E4BD2" stroke="#1E4BD2" stroke-width="2"/>
<path opacity="0.963" fill-rule="evenodd" clip-rule="evenodd" d="M11.6859 11.011C17.1243 10.9817 22.5622 11.011 28 11.0987C27.5611 12.1381 27.156 13.1912 26.7851 14.2582C21.3472 14.3753 15.909 14.3753 10.4711 14.2582C10.9277 13.1942 11.3328 12.1118 11.6859 11.011ZM9.95035 15.9257C15.3887 15.8964 20.8266 15.9257 26.2644 16.0134C25.8432 17.0274 25.4383 18.0513 25.0495 19.0851C19.6116 19.3191 14.1734 19.3191 8.73547 19.0851C9.14183 18.0269 9.54679 16.9737 9.95035 15.9257ZM24.5289 20.7527C19.0912 20.6649 13.6532 20.6356 8.21488 20.6649C7.86164 21.7658 7.45669 22.8481 7 23.9122C12.438 24.0292 17.8761 24.0292 23.3141 23.9122C23.6849 22.8451 24.09 21.792 24.5289 20.7527Z" fill="white"/>
</svg>
